<?xml version="1.0" standalone="no"?>
<!DOCTYPE svg PUBLIC "-//W3C//DTD SVG 20010904//EN"
 "http://www.w3.org/TR/2001/REC-SVG-20010904/DTD/svg10.dtd">
<svg version="1.0" xmlns="http://www.w3.org/2000/svg"
 width="260.000000pt" height="260.000000pt" viewBox="0 0 260.000000 260.000000"
 preserveAspectRatio="xMidYMid meet">
<metadata>
Created by potrace 1.14, written by Peter Selinger 2001-2017
</metadata>
<g transform="translate(0.000000,260.000000) scale(0.100000,-0.100000)"
fill="#000000" stroke="none">
<path d="M1080 2520 c-19 -4 -30 -8 -25 -9 6 -1 -14 -10 -44 -21 -29 -11 -65
-27 -79 -37 -40 -29 -46 -31 -75 -38 -15 -3 -25 -10 -22 -15 3 -5 -1 -7 -9 -4
-9 4 -49 -28 -113 -89 -54 -52 -114 -110 -135 -128 -29 -27 -38 -44 -43 -83
-5 -35 -3 -46 5 -41 7 4 5 -5 -4 -22 -10 -21 -12 -33 -4 -41 7 -7 7 -20 -1
-44 -6 -18 -10 -46 -10 -63 0 -35 7 -120 9 -120 6 0 32 -154 39 -225 5 -59 4
-87 -3 -92 -7 -5 -4 -8 7 -8 10 0 17 -8 17 -19 0 -11 5 -23 10 -26 6 -3 10
-23 10 -44 0 -22 6 -44 15 -51 8 -7 18 -34 21 -61 5 -38 14 -55 36 -74 16 -14
38 -25 49 -25 14 0 19 -7 19 -27 0 -41 36 -177 59 -220 10 -21 28 -47 40 -57
28 -26 29 -111 1 -158 -10 -18 -26 -65 -35 -103 -24 -106 -24 -105 -54 -105
-28 0 -81 -39 -81 -59 0 -6 -17 -15 -37 -20 -143 -39 -184 -55 -235 -90 -32
-21 -88 -48 -126 -60 -37 -11 -97 -36 -132 -55 -36 -18 -84 -40 -108 -46 l-42
-13 0 -64 0 -63 1300 0 1301 0 -3 126 -3 126 -75 29 c-104 41 -226 69 -298 69
-48 0 -73 7 -128 35 -38 19 -78 35 -89 36 -11 0 -38 10 -59 22 -33 19 -43 33
-66 92 -75 197 -135 276 -119 158 9 -66 -2 -105 -52 -189 -71 -118 -182 -219
-332 -303 -54 -30 -60 -31 -76 -17 -10 9 -22 16 -28 16 -18 0 -46 40 -48 68
-1 20 9 37 37 63 l38 36 -24 22 c-23 22 -25 36 -11 81 7 24 111 120 151 140
16 8 32 19 36 25 4 5 8 6 8 2 0 -23 144 105 196 174 39 54 44 72 12 42 -24
-22 -89 -63 -99 -63 -4 0 -6 6 -5 13 0 6 -3 13 -8 14 -5 1 -12 5 -15 10 -3 4
-16 13 -28 20 -18 10 -23 9 -39 -13 -11 -13 -25 -22 -31 -19 -7 2 -13 0 -13
-5 0 -5 -7 -6 -17 -3 -12 5 -14 3 -8 -8 4 -8 5 -11 0 -7 -4 4 -14 3 -20 -2 -9
-7 -16 -6 -25 5 -9 11 -17 12 -31 4 -16 -8 -19 -6 -19 11 0 20 -19 23 -33 5
-4 -6 -10 0 -13 13 -8 29 -40 26 -71 -6 -18 -18 -23 -19 -23 -8 0 19 -5 20
-31 6 -19 -11 -24 -4 -20 28 1 6 -8 12 -19 12 -14 0 -19 4 -14 12 5 9 2 8 -9
-1 -14 -11 -23 -12 -44 -2 -18 8 -23 15 -16 22 13 13 4 51 -10 42 -6 -4 -8 2
-5 15 5 17 1 23 -19 28 -21 6 -43 38 -43 64 0 14 43 -1 78 -27 18 -14 40 -22
47 -19 10 4 15 -1 15 -15 0 -11 5 -17 10 -14 6 4 8 11 5 16 -4 5 -1 9 6 9 9 0
9 3 -1 15 -16 20 -4 52 23 59 49 12 336 17 357 6 31 -16 110 -3 110 19 0 23
-43 62 -66 61 -11 -1 -35 -2 -56 -3 -20 -1 -34 -6 -30 -11 3 -5 1 -6 -5 -3 -5
3 -22 8 -37 11 -22 4 -29 1 -33 -14 -10 -38 -130 -51 -169 -19 -11 9 -11 15
-3 25 6 8 16 11 22 7 5 -3 7 -1 4 4 -4 6 7 21 23 34 16 13 30 30 30 37 0 7 8
16 17 19 15 6 15 7 -3 15 -12 5 -3 7 28 4 50 -4 69 12 42 35 -11 9 -23 9 -51
1 -30 -9 -41 -8 -72 8 -74 40 -115 96 -63 88 15 -3 17 12 20 125 1 71 -2 144
-7 163 -7 25 -6 34 2 34 7 0 3 6 -8 12 -11 6 -27 19 -35 30 -9 10 -23 20 -32
22 -9 1 -22 7 -29 13 -13 9 -59 19 -133 28 -16 2 -32 9 -36 16 -5 6 -17 9 -29
6 -19 -5 -21 -2 -16 33 3 22 6 43 6 47 1 4 -1 21 -6 37 -7 25 -4 33 25 57 37
33 48 35 56 15 5 -12 11 -13 30 -4 18 8 31 8 52 -2 15 -7 55 -14 90 -15 58 -3
63 -1 68 20 5 21 12 23 52 23 76 -2 104 1 97 12 -3 5 9 9 30 8 20 -1 43 6 53
15 10 10 32 17 49 17 30 0 59 21 47 33 -4 3 6 4 22 1 35 -6 42 -13 26 -23 -8
-5 11 -11 48 -14 38 -4 73 -15 91 -28 29 -21 38 -39 18 -39 -6 0 6 -19 26 -42
19 -23 38 -53 41 -65 4 -13 11 -20 16 -17 6 4 8 1 6 -7 -3 -8 -1 -27 3 -44 8
-28 7 -29 -6 -11 -8 11 -17 18 -19 15 -3 -2 0 -55 6 -118 7 -81 7 -116 -1
-124 -13 -13 -15 -64 -2 -71 5 -3 7 -14 4 -25 -3 -11 2 -21 12 -25 14 -5 15
-16 10 -78 l-7 -73 26 37 c15 21 32 37 38 35 8 -1 12 13 13 38 0 22 9 53 20
68 15 24 24 28 47 23 21 -4 28 -2 28 10 0 8 -7 17 -15 21 -13 4 -10 11 15 33
27 24 32 37 46 131 11 79 13 114 5 146 -15 57 -14 86 2 80 8 -3 13 9 14 41 2
39 1 42 -11 26 -12 -16 -13 -16 -13 9 0 15 5 27 12 27 6 0 20 9 29 19 16 18
16 19 -6 20 -48 1 -58 5 -58 23 0 11 -4 17 -9 13 -13 -7 -21 23 -23 78 -1 59
6 67 53 67 l39 0 -27 30 c-26 30 -53 40 -53 19 0 -5 5 -7 10 -4 6 4 18 1 26
-6 14 -12 14 -14 -3 -20 -40 -16 -42 -12 -37 61 4 58 2 70 -11 70 -8 0 -15 -6
-15 -14 0 -24 -49 -75 -70 -73 -16 1 -20 9 -20 37 0 19 -4 40 -8 45 -9 14 -93
17 -143 6 -23 -5 -41 -5 -45 0 -7 13 -156 80 -162 74 -3 -3 -1 -5 4 -5 6 0 19
-7 30 -16 19 -15 19 -15 -1 -6 -11 5 -46 9 -79 11 -32 1 -79 6 -105 12 -57 13
-223 18 -271 9z m685 -90 c3 -5 -3 -10 -14 -10 -12 0 -21 5 -21 10 0 6 6 10
14 10 8 0 18 -4 21 -10z m50 -20 c10 -11 15 -26 11 -36 -6 -15 -8 -15 -26 1
-20 18 -28 55 -12 55 5 0 17 -9 27 -20z m150 -29 c-3 -6 -14 -11 -23 -11 -12
0 -13 -3 -4 -12 17 -17 15 -38 -3 -38 -8 0 -15 -6 -16 -12 0 -10 -2 -10 -6 0
-2 6 -9 10 -14 6 -5 -3 -9 1 -9 8 0 13 71 81 78 74 2 -3 1 -9 -3 -15z m-31
-116 c-4 -8 -10 -15 -15 -15 -5 0 -9 7 -9 15 0 8 7 15 15 15 9 0 12 -6 9 -15z
m11 -35 c-4 -12 -9 -19 -12 -17 -3 3 -2 15 2 27 4 12 9 19 12 17 3 -3 2 -15
-2 -27z m-290 -120 c3 -5 1 -10 -4 -10 -6 0 -11 5 -11 10 0 6 2 10 4 10 3 0 8
-4 11 -10z m-600 -37 c11 -9 14 -14 5 -11 -8 3 -24 2 -35 -2 -26 -10 -64 8
-44 21 21 13 52 10 74 -8z m112 -55 c-3 -8 -6 -5 -6 6 -1 11 2 17 5 13 3 -3 4
-12 1 -19z m-172 -297 c22 -10 46 -25 54 -34 12 -16 7 -17 -61 -17 -76 0 -98
9 -98 41 0 33 46 37 105 10z m105 -133 c22 -3 25 -7 22 -37 -2 -18 -10 -52
-19 -75 -8 -22 -16 -61 -19 -86 -8 -71 -37 -170 -51 -170 -7 0 -13 -7 -13 -16
0 -13 -3 -14 -13 -5 -10 8 -19 7 -33 -4 -28 -21 -32 -19 -43 23 -7 23 -23 47
-41 60 -16 13 -30 31 -30 42 0 10 -4 21 -8 24 -9 6 -8 103 2 134 4 12 13 22
19 22 23 1 60 38 62 61 1 19 8 24 31 26 17 1 37 12 49 27 l20 24 20 -23 c11
-13 31 -25 45 -27z m137 -1542 c-5 -16 -47 -20 -47 -4 0 7 11 14 25 14 16 1
24 -3 22 -10z"/>
<path d="M2002 2385 c0 -16 2 -22 5 -12 2 9 2 23 0 30 -3 6 -5 -1 -5 -18z"/>
<path d="M2060 1976 c0 -2 8 -10 18 -17 15 -13 16 -12 3 4 -13 16 -21 21 -21
13z"/>
<path d="M1437 1777 c4 -6 -1 -8 -11 -4 -9 4 -15 3 -12 -1 3 -5 -4 -14 -14
-22 -10 -8 -17 -17 -14 -22 3 -4 1 -8 -4 -8 -6 0 -12 -7 -16 -15 -4 -12 0 -14
22 -9 15 4 32 9 37 13 6 3 17 7 26 8 40 6 94 30 91 41 -1 9 7 11 25 7 24 -5
23 -4 -7 10 -37 17 -133 18 -123 2z"/>
<path d="M1670 1746 c0 -2 7 -7 16 -10 8 -3 12 -2 9 4 -6 10 -25 14 -25 6z"/>
<path d="M1416 1645 c-17 -7 -31 -22 -33 -34 -2 -18 2 -21 32 -21 24 0 35 5
35 15 0 8 5 15 10 15 6 0 10 -9 10 -20 0 -17 7 -20 45 -20 34 0 47 5 55 19 10
19 12 19 38 4 17 -10 36 -13 47 -10 17 7 17 8 0 27 -10 11 -34 24 -54 30 -49
14 -150 11 -185 -5z"/>
<path d="M1280 1171 c13 -25 30 -36 30 -20 0 7 8 5 20 -6 18 -17 20 -17 14 -2
-6 16 -17 21 -36 18 -5 0 -8 6 -8 14 0 8 -7 15 -15 15 -12 0 -14 -4 -5 -19z"/>
<path d="M1900 1181 c0 -5 7 -12 16 -15 14 -5 15 -4 4 9 -14 17 -20 19 -20 6z"/>
<path d="M1756 1078 c-20 -104 -21 -188 -2 -188 8 0 15 17 19 48 3 26 12 61
21 77 8 17 17 47 20 69 4 21 8 42 11 46 3 6 -36 30 -49 30 -2 0 -11 -37 -20
-82z"/>
<path d="M1505 909 c-4 -6 -5 -12 -2 -15 2 -3 7 2 10 11 7 17 1 20 -8 4z"/>
</g>
</svg>
